<?xml version="1.0" encoding="UTF-8"?>
<svg xmlns="http://www.w3.org/2000/svg" xmlns:xlink="http://www.w3.org/1999/xlink" width="25px" height="px" viewBox="0 0 25 25" version="1.1">
<g id="surface1">
<path style=" stroke:none;fill-rule:nonzero;fill:rgb(20%,82.352942%,49.411765%);fill-opacity:1;" d="M 3.664062 1.347656 C 3.730469 1.34375 3.796875 1.34375 3.863281 1.34375 C 4.082031 1.339844 4.300781 1.339844 4.519531 1.339844 C 4.675781 1.339844 4.832031 1.335938 4.988281 1.335938 C 5.417969 1.332031 5.84375 1.332031 6.269531 1.328125 C 6.535156 1.328125 6.800781 1.328125 7.070312 1.328125 C 8 1.324219 8.929688 1.320312 9.863281 1.320312 C 10.726562 1.320312 11.59375 1.316406 12.460938 1.308594 C 13.207031 1.300781 13.949219 1.300781 14.695312 1.300781 C 15.140625 1.300781 15.582031 1.296875 16.027344 1.292969 C 16.445312 1.289062 16.863281 1.289062 17.28125 1.289062 C 17.4375 1.292969 17.589844 1.289062 17.742188 1.289062 C 18.511719 1.273438 19.078125 1.304688 19.679688 1.839844 C 19.824219 1.992188 19.964844 2.144531 20.101562 2.300781 C 20.242188 2.433594 20.242188 2.433594 20.386719 2.570312 C 20.625 2.804688 20.863281 3.039062 21.101562 3.273438 C 21.183594 3.355469 21.269531 3.441406 21.355469 3.523438 C 21.4375 3.605469 21.515625 3.683594 21.601562 3.765625 C 21.671875 3.839844 21.746094 3.910156 21.820312 3.984375 C 22.269531 4.523438 22.203125 4.996094 22.148438 5.664062 C 21.945312 8.0625 21.945312 8.0625 22.882812 10.175781 C 23.410156 10.753906 24.019531 11.253906 24.652344 11.710938 C 24.964844 11.949219 24.988281 12.027344 25.050781 12.414062 C 24.976562 12.96875 24.683594 13.210938 24.300781 13.601562 C 24.183594 13.734375 24.070312 13.871094 23.957031 14.007812 C 23.664062 14.34375 23.34375 14.632812 23 14.917969 C 22.417969 15.445312 22.417969 15.445312 22.238281 16.183594 C 22.238281 16.371094 22.238281 16.558594 22.238281 16.746094 C 22.238281 16.847656 22.238281 16.949219 22.238281 17.050781 C 22.234375 17.367188 22.234375 17.6875 22.238281 18.007812 C 22.238281 18.324219 22.238281 18.644531 22.234375 18.964844 C 22.234375 19.160156 22.234375 19.359375 22.238281 19.558594 C 22.234375 20.347656 22.007812 20.714844 21.460938 21.265625 C 21.375 21.351562 21.375 21.351562 21.289062 21.4375 C 21.226562 21.496094 21.167969 21.554688 21.109375 21.613281 C 20.984375 21.738281 20.859375 21.863281 20.734375 21.984375 C 20.542969 22.175781 20.351562 22.367188 20.164062 22.554688 C 20.042969 22.675781 19.921875 22.796875 19.800781 22.917969 C 19.742188 22.972656 19.683594 23.03125 19.625 23.089844 C 19.179688 23.53125 19 23.613281 18.378906 23.617188 C 18.3125 23.617188 18.25 23.617188 18.183594 23.617188 C 17.964844 23.621094 17.746094 23.621094 17.53125 23.621094 C 17.375 23.625 17.21875 23.625 17.0625 23.625 C 16.554688 23.628906 16.042969 23.632812 15.53125 23.632812 C 15.445312 23.636719 15.355469 23.636719 15.265625 23.636719 C 14.445312 23.640625 13.625 23.640625 12.804688 23.644531 C 11.757812 23.648438 10.707031 23.652344 9.65625 23.660156 C 8.921875 23.667969 8.183594 23.667969 7.445312 23.671875 C 7.003906 23.671875 6.5625 23.671875 6.125 23.675781 C 5.707031 23.679688 5.292969 23.683594 4.878906 23.679688 C 4.726562 23.679688 4.574219 23.683594 4.421875 23.683594 C 3.132812 23.707031 3.132812 23.707031 2.617188 23.257812 C 2.507812 23.140625 2.402344 23.023438 2.300781 22.898438 C 2.222656 22.835938 2.148438 22.773438 2.070312 22.707031 C 1.667969 22.363281 1.316406 22.003906 0.972656 21.597656 C 0.742188 21.332031 0.492188 21.089844 0.238281 20.84375 C -0.0507812 20.542969 -0.015625 20.277344 -0.015625 19.871094 C -0.015625 19.804688 -0.0195312 19.738281 -0.0195312 19.671875 C -0.0195312 19.453125 -0.0195312 19.230469 -0.0234375 19.011719 C -0.0234375 18.855469 -0.0234375 18.699219 -0.0273438 18.539062 C -0.03125 18.023438 -0.03125 17.503906 -0.0351562 16.988281 C -0.0351562 16.898438 -0.0351562 16.8125 -0.0351562 16.71875 C -0.0390625 15.890625 -0.0429688 15.058594 -0.0429688 14.226562 C -0.046875 13.164062 -0.0507812 12.101562 -0.0585938 11.039062 C -0.0664062 10.292969 -0.0703125 9.546875 -0.0703125 8.796875 C -0.0703125 8.351562 -0.0742188 7.90625 -0.078125 7.460938 C -0.0820312 7.039062 -0.0820312 6.621094 -0.0820312 6.199219 C -0.0820312 6.046875 -0.0820312 5.890625 -0.0859375 5.738281 C -0.105469 4.433594 -0.105469 4.433594 0.339844 3.921875 C 0.457031 3.8125 0.578125 3.703125 0.699219 3.601562 C 0.777344 3.5 0.851562 3.402344 0.929688 3.300781 C 0.988281 3.234375 1.042969 3.167969 1.101562 3.101562 C 1.164062 3.101562 1.230469 3.101562 1.300781 3.101562 C 1.324219 3.042969 1.347656 2.988281 1.371094 2.929688 C 1.535156 2.640625 1.734375 2.46875 1.980469 2.25 C 2.109375 2.136719 2.109375 2.136719 2.238281 2.023438 C 2.324219 1.949219 2.410156 1.875 2.5 1.800781 C 2.609375 1.695312 2.609375 1.695312 2.726562 1.589844 C 3.0625 1.355469 3.253906 1.347656 3.664062 1.347656 Z M 3.664062 1.347656 "/>
<path style=" stroke:none;fill-rule:nonzero;fill:rgb(97.647059%,99.215686%,98.431373%);fill-opacity:1;" d="M 11.050781 6.855469 C 11.15625 6.855469 11.261719 6.855469 11.367188 6.855469 C 12.730469 6.863281 13.558594 7.238281 14.601562 8.101562 C 14.675781 8.15625 14.75 8.210938 14.828125 8.265625 C 15.820312 9.015625 16.21875 10.320312 16.398438 11.5 C 16.398438 12.191406 16.398438 12.886719 16.398438 13.601562 C 13.726562 13.601562 11.054688 13.601562 8.300781 13.601562 C 8.667969 14.703125 8.941406 15.515625 9.949219 16.125 C 10.492188 16.394531 10.949219 16.414062 11.550781 16.414062 C 11.679688 16.414062 11.808594 16.414062 11.941406 16.414062 C 12.488281 16.414062 12.488281 16.414062 12.949219 16.164062 C 13 16.109375 13.050781 16.054688 13.101562 16 C 13.261719 15.886719 13.425781 15.773438 13.59375 15.664062 C 13.960938 15.410156 14.25 15.175781 14.5 14.800781 C 14.945312 14.84375 15.207031 15.152344 15.511719 15.449219 C 15.875 15.816406 15.875 15.816406 16.300781 16.101562 C 15.914062 16.96875 15.101562 17.457031 14.300781 17.898438 C 14.136719 18.007812 14.136719 18.007812 13.96875 18.117188 C 13.070312 18.621094 12.003906 18.648438 11 18.601562 C 10.859375 18.597656 10.859375 18.597656 10.714844 18.59375 C 9.480469 18.535156 8.230469 17.921875 7.351562 17.054688 C 6.785156 16.402344 6.417969 15.703125 6.101562 14.898438 C 6.074219 14.839844 6.046875 14.78125 6.019531 14.722656 C 5.765625 14.136719 5.746094 13.585938 5.75 12.957031 C 5.75 12.851562 5.75 12.746094 5.75 12.636719 C 5.789062 10.976562 6.328125 9.429688 7.480469 8.207031 C 8.527344 7.21875 9.621094 6.828125 11.050781 6.855469 Z M 11.050781 6.855469 "/>
<path style=" stroke:none;fill-rule:nonzero;fill:rgb(21.176471%,82.352942%,49.803922%);fill-opacity:1;" d="M 11.050781 8.980469 C 11.871094 8.992188 12.527344 9.035156 13.144531 9.625 C 13.675781 10.222656 13.796875 10.570312 13.898438 11.398438 C 12.085938 11.398438 10.269531 11.398438 8.398438 11.398438 C 8.738281 10.273438 8.738281 10.273438 9 9.957031 C 9.050781 9.894531 9.097656 9.832031 9.148438 9.769531 C 9.199219 9.714844 9.25 9.65625 9.300781 9.601562 C 9.347656 9.546875 9.394531 9.492188 9.441406 9.433594 C 9.632812 9.273438 9.769531 9.238281 10.011719 9.1875 C 10.921875 8.980469 10.921875 8.980469 11.050781 8.980469 Z M 11.050781 8.980469 "/>
<path style=" stroke:none;fill-rule:nonzero;fill:rgb(27.450982%,83.92157%,53.725493%);fill-opacity:1;" d="M 3.65625 1.359375 C 3.753906 1.359375 3.753906 1.359375 3.855469 1.359375 C 4.074219 1.355469 4.296875 1.359375 4.515625 1.359375 C 4.671875 1.355469 4.832031 1.355469 4.988281 1.355469 C 5.417969 1.351562 5.847656 1.351562 6.273438 1.351562 C 6.632812 1.351562 6.992188 1.351562 7.347656 1.351562 C 8.191406 1.347656 9.039062 1.347656 9.882812 1.351562 C 10.753906 1.351562 11.625 1.347656 12.496094 1.34375 C 13.242188 1.339844 13.988281 1.339844 14.738281 1.339844 C 15.183594 1.339844 15.632812 1.339844 16.078125 1.339844 C 16.496094 1.335938 16.917969 1.335938 17.335938 1.339844 C 17.492188 1.339844 17.644531 1.335938 17.800781 1.335938 C 18.011719 1.335938 18.222656 1.335938 18.429688 1.335938 C 18.550781 1.335938 18.667969 1.335938 18.789062 1.335938 C 19.1875 1.417969 19.339844 1.59375 19.601562 1.898438 C 19.53125 1.867188 19.460938 1.835938 19.390625 1.800781 C 19.054688 1.683594 18.792969 1.675781 18.4375 1.671875 C 18.371094 1.671875 18.304688 1.671875 18.238281 1.671875 C 18.019531 1.671875 17.800781 1.671875 17.585938 1.671875 C 17.425781 1.671875 17.269531 1.667969 17.113281 1.667969 C 16.6875 1.667969 16.261719 1.667969 15.839844 1.667969 C 15.574219 1.667969 15.308594 1.664062 15.039062 1.664062 C 14.113281 1.664062 13.1875 1.664062 12.257812 1.664062 C 11.394531 1.664062 10.53125 1.660156 9.667969 1.65625 C 8.925781 1.65625 8.183594 1.652344 7.441406 1.652344 C 6.996094 1.652344 6.554688 1.652344 6.109375 1.652344 C 5.695312 1.648438 5.277344 1.648438 4.859375 1.652344 C 4.707031 1.652344 4.554688 1.652344 4.402344 1.648438 C 4.195312 1.648438 3.984375 1.648438 3.777344 1.652344 C 3.601562 1.648438 3.601562 1.648438 3.421875 1.648438 C 2.792969 1.746094 2.367188 2.203125 1.914062 2.625 C 1.816406 2.714844 1.71875 2.804688 1.621094 2.894531 C 1.546875 2.960938 1.476562 3.03125 1.398438 3.101562 C 1.398438 2.800781 1.398438 2.800781 1.648438 2.539062 C 1.757812 2.441406 1.867188 2.347656 1.976562 2.25 C 2.027344 2.203125 2.082031 2.152344 2.136719 2.101562 C 2.289062 1.964844 2.445312 1.832031 2.601562 1.699219 C 2.660156 1.644531 2.71875 1.59375 2.777344 1.535156 C 3.082031 1.351562 3.300781 1.363281 3.65625 1.359375 Z M 3.65625 1.359375 "/>
<path style=" stroke:none;fill-rule:nonzero;fill:rgb(99.607843%,100%,99.607843%);fill-opacity:1;" d="M 23.699219 13.898438 C 23.800781 13.933594 23.898438 13.964844 24 14 C 23.933594 14.0625 23.933594 14.0625 23.867188 14.125 C 23.664062 14.308594 23.464844 14.496094 23.261719 14.679688 C 23.191406 14.746094 23.121094 14.808594 23.050781 14.875 C 22.984375 14.9375 22.917969 15 22.847656 15.0625 C 22.785156 15.121094 22.722656 15.179688 22.660156 15.238281 C 22.363281 15.539062 22.273438 15.742188 22.269531 16.15625 C 22.265625 16.25 22.265625 16.339844 22.261719 16.433594 C 22.261719 16.582031 22.261719 16.582031 22.257812 16.734375 C 22.257812 16.835938 22.253906 16.9375 22.253906 17.042969 C 22.246094 17.367188 22.242188 17.695312 22.238281 18.019531 C 22.234375 18.238281 22.230469 18.460938 22.226562 18.679688 C 22.214844 19.21875 22.207031 19.761719 22.199219 20.300781 C 22.167969 20.300781 22.132812 20.300781 22.101562 20.300781 C 22.082031 19.644531 22.070312 18.992188 22.0625 18.335938 C 22.058594 18.113281 22.054688 17.890625 22.046875 17.667969 C 22.039062 17.347656 22.035156 17.027344 22.03125 16.707031 C 22.027344 16.609375 22.023438 16.507812 22.019531 16.40625 C 22.019531 15.867188 22.078125 15.5625 22.441406 15.144531 C 22.558594 15.027344 22.679688 14.914062 22.800781 14.800781 C 22.871094 14.722656 22.941406 14.648438 23.015625 14.570312 C 23.070312 14.511719 23.125 14.457031 23.179688 14.398438 C 23.238281 14.34375 23.292969 14.285156 23.351562 14.226562 C 23.5 14.101562 23.5 14.101562 23.699219 14.101562 C 23.699219 14.035156 23.699219 13.96875 23.699219 13.898438 Z M 23.699219 13.898438 "/>
<path style=" stroke:none;fill-rule:nonzero;fill:rgb(51.764709%,89.019608%,69.01961%);fill-opacity:1;" d="M 3.859375 1.359375 C 3.980469 1.363281 3.980469 1.363281 4.105469 1.363281 C 4.363281 1.363281 4.621094 1.371094 4.882812 1.375 C 5.058594 1.378906 5.234375 1.378906 5.410156 1.378906 C 5.839844 1.386719 6.269531 1.390625 6.699219 1.398438 C 6.699219 1.433594 6.699219 1.464844 6.699219 1.5 C 6.605469 1.5 6.515625 1.503906 6.417969 1.503906 C 6.070312 1.511719 5.722656 1.519531 5.375 1.527344 C 5.226562 1.53125 5.078125 1.53125 4.925781 1.535156 C 3.617188 1.523438 3.617188 1.523438 2.46875 2.089844 C 2.410156 2.15625 2.347656 2.222656 2.289062 2.292969 C 1.980469 2.625 1.6875 2.867188 1.300781 3.101562 C 1.453125 2.722656 1.679688 2.515625 1.980469 2.25 C 2.109375 2.136719 2.109375 2.136719 2.238281 2.023438 C 2.324219 1.949219 2.410156 1.875 2.5 1.800781 C 2.570312 1.730469 2.640625 1.660156 2.710938 1.589844 C 3.09375 1.339844 3.417969 1.347656 3.859375 1.359375 Z M 3.859375 1.359375 "/>
<path style=" stroke:none;fill-rule:nonzero;fill:rgb(77.64706%,94.901961%,85.09804%);fill-opacity:1;" d="M 19.601562 1.898438 C 20.164062 2.367188 20.679688 2.867188 21.195312 3.386719 C 21.273438 3.464844 21.347656 3.542969 21.429688 3.625 C 21.621094 3.816406 21.808594 4.007812 22 4.199219 C 21.96875 4.265625 21.933594 4.332031 21.898438 4.398438 C 21.78125 4.304688 21.667969 4.207031 21.550781 4.113281 C 21.453125 4.03125 21.453125 4.03125 21.351562 3.949219 C 21.300781 3.902344 21.253906 3.851562 21.199219 3.800781 C 21.199219 3.734375 21.199219 3.667969 21.199219 3.601562 C 21.140625 3.574219 21.082031 3.546875 21.019531 3.519531 C 20.800781 3.398438 20.667969 3.285156 20.5 3.101562 C 20.445312 3.046875 20.394531 2.988281 20.339844 2.929688 C 20.285156 2.871094 20.230469 2.8125 20.175781 2.75 C 20.121094 2.691406 20.0625 2.632812 20.007812 2.570312 C 19.601562 2.125 19.601562 2.125 19.601562 1.898438 Z M 19.601562 1.898438 "/>
<path style=" stroke:none;fill-rule:nonzero;fill:rgb(60.784316%,90.588236%,74.117649%);fill-opacity:1;" d="M 23.699219 13.898438 C 23.800781 13.933594 23.898438 13.964844 24 14 C 23.957031 14.039062 23.914062 14.082031 23.867188 14.121094 C 23.671875 14.304688 23.472656 14.492188 23.273438 14.675781 C 23.171875 14.769531 23.171875 14.769531 23.070312 14.867188 C 22.738281 15.171875 22.414062 15.480469 22.101562 15.800781 C 22.246094 15.300781 22.539062 15.019531 22.898438 14.667969 C 22.953125 14.613281 23.007812 14.558594 23.066406 14.503906 C 23.472656 14.101562 23.472656 14.101562 23.699219 14.101562 C 23.699219 14.035156 23.699219 13.96875 23.699219 13.898438 Z M 23.699219 13.898438 "/>
<path style=" stroke:none;fill-rule:nonzero;fill:rgb(81.568629%,95.294118%,87.843138%);fill-opacity:1;" d="M 8.199219 7.601562 C 8.265625 7.632812 8.332031 7.664062 8.398438 7.699219 C 7.972656 8.128906 7.542969 8.558594 7.101562 9 C 7.035156 8.96875 6.96875 8.933594 6.898438 8.898438 C 7.726562 7.941406 7.726562 7.941406 8.199219 7.601562 Z M 8.199219 7.601562 "/>
<path style=" stroke:none;fill-rule:nonzero;fill:rgb(53.725493%,86.274511%,66.274512%);fill-opacity:1;" d="M 1.5 22 C 1.882812 22.15625 2.121094 22.402344 2.398438 22.699219 C 2.367188 22.765625 2.335938 22.832031 2.300781 22.898438 C 2.167969 22.789062 2.03125 22.675781 1.898438 22.5625 C 1.789062 22.46875 1.789062 22.46875 1.675781 22.371094 C 1.617188 22.316406 1.558594 22.257812 1.5 22.199219 C 1.5 22.132812 1.5 22.066406 1.5 22 Z M 1.5 22 "/>
</g>
</svg>
