<?xml version="1.0" encoding="UTF-8"?>
<svg xmlns="http://www.w3.org/2000/svg" xmlns:xlink="http://www.w3.org/1999/xlink" width="25px" height="px" viewBox="0 0 25 18" version="1.1">
<g id="surface1">
<path style=" stroke:none;fill-rule:nonzero;fill:rgb(100%,0%,0%);fill-opacity:1;" d="M 24.476562 2.832031 C 24.1875 1.726562 23.34375 0.863281 22.265625 0.566406 C 20.316406 0.03125 12.5 0.03125 12.5 0.03125 C 12.5 0.03125 4.683594 0.03125 2.734375 0.566406 C 1.65625 0.863281 0.8125 1.726562 0.523438 2.832031 C 0 4.832031 0 9 0 9 C 0 9 0 13.167969 0.523438 15.167969 C 0.8125 16.273438 1.65625 17.136719 2.734375 17.433594 C 4.683594 17.96875 12.5 17.96875 12.5 17.96875 C 12.5 17.96875 20.316406 17.96875 22.265625 17.433594 C 23.34375 17.136719 24.1875 16.273438 24.476562 15.167969 C 25 13.167969 25 9 25 9 C 25 9 25 4.832031 24.476562 2.832031 Z M 24.476562 2.832031 "/>
<path style=" stroke:none;fill-rule:nonzero;fill:rgb(100%,100%,100%);fill-opacity:1;" d="M 10 12.84375 L 16.496094 9 L 10 5.15625 Z M 10 12.84375 "/>
</g>
</svg>
